<svg width="144" height="50" viewBox="0 0 144 50" fill="none" xmlns="http://www.w3.org/2000/svg">
<rect width="50" height="50" fill="#121111"/>
<path d="M13.4622 25.3029L23.9529 35.7936L19.4618 40.2847L4.11455 24.9374L19.5992 9.45277L34.9465 24.8L30.5103 29.2361L20.0196 18.7454L19.4893 18.2151L18.959 18.7454L13.4622 24.2422L12.9318 24.7725L13.4622 25.3029Z" fill="white" stroke="black" stroke-width="1.5"/>
<path d="M36.5378 24.2697L26.0471 13.7789L30.5382 9.28784L45.8854 24.6351L30.4008 40.1198L15.0535 24.7725L19.4897 20.3364L29.9804 30.8271L30.5107 31.3574L31.041 30.8271L36.5378 25.3303L37.0682 24.8L36.5378 24.2697Z" fill="white" stroke="black" stroke-width="1.5"/>
<path d="M59.1094 15.0001V19.0938H62.2656V21.3282H59.1094V31.8126C59.1094 32.4896 59.25 33.0001 59.5312 33.3438C59.8125 33.6771 60.2917 33.8438 60.9688 33.8438C61.3021 33.8438 61.7604 33.7813 62.3438 33.6563V36.0001C61.5833 36.2084 60.8438 36.3126 60.125 36.3126C58.8333 36.3126 57.8594 35.9219 57.2031 35.1407C56.5469 34.3594 56.2188 33.2501 56.2188 31.8126V21.3282H53.1406V19.0938H56.2188V15.0001H59.1094ZM76.0938 36.0001C75.9271 35.6667 75.7917 35.073 75.6875 34.2188C74.3438 35.6146 72.7396 36.3126 70.875 36.3126C69.2083 36.3126 67.8385 35.8438 66.7656 34.9063C65.7031 33.9584 65.1719 32.7605 65.1719 31.3126C65.1719 29.5521 65.8385 28.1876 67.1719 27.2188C68.5156 26.2396 70.401 25.7501 72.8281 25.7501H75.6406V24.4219C75.6406 23.4115 75.3385 22.6094 74.7344 22.0157C74.1302 21.4115 73.2396 21.1094 72.0625 21.1094C71.0312 21.1094 70.1667 21.3699 69.4688 21.8907C68.7708 22.4115 68.4219 23.0417 68.4219 23.7813H65.5156C65.5156 22.9376 65.8125 22.1251 66.4062 21.3438C67.0104 20.5521 67.8229 19.9271 68.8438 19.4688C69.875 19.0105 71.0052 18.7813 72.2344 18.7813C74.1823 18.7813 75.7083 19.2709 76.8125 20.2501C77.9167 21.2188 78.4896 22.5574 78.5312 24.2657V32.0469C78.5312 33.599 78.7292 34.8334 79.125 35.7501V36.0001H76.0938ZM71.2969 33.7969C72.2031 33.7969 73.0625 33.5626 73.875 33.0938C74.6875 32.6251 75.276 32.0157 75.6406 31.2657V27.7969H73.375C69.8333 27.7969 68.0625 28.8334 68.0625 30.9063C68.0625 31.8126 68.3646 32.5209 68.9688 33.0313C69.5729 33.5417 70.349 33.7969 71.2969 33.7969ZM82.375 27.4063C82.375 24.7709 82.9844 22.6771 84.2031 21.1251C85.4219 19.5626 87.0365 18.7813 89.0469 18.7813C91.1094 18.7813 92.7188 19.5105 93.875 20.9688L94.0156 19.0938H96.6562V35.5938C96.6562 37.7813 96.0052 39.5053 94.7031 40.7657C93.4115 42.0261 91.6719 42.6563 89.4844 42.6563C88.2656 42.6563 87.0729 42.3959 85.9062 41.8751C84.7396 41.3542 83.849 40.6407 83.2344 39.7344L84.7344 38.0001C85.974 39.5313 87.4896 40.2969 89.2812 40.2969C90.6875 40.2969 91.7812 39.9011 92.5625 39.1094C93.3542 38.3178 93.75 37.2032 93.75 35.7657V34.3126C92.5938 35.6459 91.0156 36.3126 89.0156 36.3126C87.0365 36.3126 85.4323 35.5157 84.2031 33.9219C82.9844 32.3282 82.375 30.1563 82.375 27.4063ZM85.2812 27.7344C85.2812 29.6407 85.6719 31.1407 86.4531 32.2344C87.2344 33.3178 88.3281 33.8594 89.7344 33.8594C91.5573 33.8594 92.8958 33.0313 93.75 31.3751V23.6563C92.8646 22.0417 91.5365 21.2344 89.7656 21.2344C88.3594 21.2344 87.2604 21.7813 86.4688 22.8751C85.6771 23.9688 85.2812 25.5886 85.2812 27.7344ZM101.484 36.0001V13.2501H107.906C109.885 13.2501 111.635 13.6876 113.156 14.5626C114.677 15.4376 115.849 16.6824 116.672 18.2969C117.505 19.9115 117.927 21.7657 117.938 23.8594V25.3126C117.938 27.4584 117.521 29.3386 116.688 30.9532C115.865 32.5678 114.682 33.8074 113.141 34.6719C111.609 35.5365 109.823 35.9792 107.781 36.0001H101.484ZM104.484 15.7188V33.5469H107.641C109.953 33.5469 111.75 32.8282 113.031 31.3907C114.323 29.9532 114.969 27.9063 114.969 25.2501V23.9219C114.969 21.3386 114.359 19.3334 113.141 17.9063C111.932 16.4688 110.214 15.7396 107.984 15.7188H104.484ZM125.172 36.0001H122.281V19.0938H125.172V36.0001ZM122.047 14.6094C122.047 14.1407 122.188 13.7449 122.469 13.4219C122.76 13.099 123.188 12.9376 123.75 12.9376C124.312 12.9376 124.74 13.099 125.031 13.4219C125.323 13.7449 125.469 14.1407 125.469 14.6094C125.469 15.0782 125.323 15.4688 125.031 15.7813C124.74 16.0938 124.312 16.2501 123.75 16.2501C123.188 16.2501 122.76 16.0938 122.469 15.7813C122.188 15.4688 122.047 15.0782 122.047 14.6094ZM135.391 32.0782L139.578 19.0938H142.531L136.469 36.0001H134.266L128.141 19.0938H131.094L135.391 32.0782Z" fill="white"/>
</svg>
